<?xml version="1.0" encoding="UTF-8"?>
<svg xmlns="http://www.w3.org/2000/svg" viewBox="0 0 248 235" width="248" height="235">
<path d="M68.34 10.12C98.34 8.59 129.76 8.83 159.75 10.28C179.74 11.24 196.44 9.04 213.43 21.36C233.4 35.83 234.15 59.32 234.15 81.75C234.15 103.25 233.82 124.75 234.01 146.25C234.14 161.68 236.37 179.22 231.76 194.09C228.11 205.85 219.35 215.77 209.5 222.75C190.26 236.39 161.44 231.15 139.25 231.18C100.82 231.24 45.13 241.83 21.3 204.96C9.68 187 14.22 159.62 14.26 139.25C14.33 91.68 -0.53 13.64 68.34 10.12ZM160.51 51.77C122.69 58.68 131.51 111.55 166.01 106.74C205.54 101.24 194.55 45.55 160.51 51.77ZM84.9 120.22C73.83 122.56 40.44 151.44 36.21 161.91C31.46 173.68 38.35 193.35 47.23 201.52C57.97 211.4 74.22 210.33 87.75 210.01C112.76 209.4 137.38 209.6 162.25 209.75C179.48 209.86 196.69 210.24 207.02 193.76C210.56 188.12 214.46 179.11 212.84 172.33C209.87 159.86 178.23 142.36 165.5 146.28C159.81 148.03 140.55 163.59 138.86 162.88C123.41 156.37 113.28 114.23 84.9 120.22Z" fill="#6968f9" fill-rule="evenodd" stroke="#6968f9" stroke-width="0.25" stroke-linejoin="round"/>
</svg>